PathFileType	3	(X/Y/Z)	running_1__fused_aligned.trc
DataRate	CameraRate	NumFrames	NumMarkers	Units	OrigDataRate	OrigDataStartFrame	OrigNumFrames
100.0	100.0	18	19	mm	100.0	246	6379
Frame#	Time	pelvis			neck			head			hip_left			hip_right			knee_left			knee_right			ankle_left			ankle_right			heel_left			heel_right			toe_left			toe_right			shoulder_left			shoulder_right			elbow_left			elbow_right			wrist_left			wrist_right			
		X1	Y1	Z1	X2	Y2	Z2	X3	Y3	Z3	X4	Y4	Z4	X5	Y5	Z5	X6	Y6	Z6	X7	Y7	Z7	X8	Y8	Z8	X9	Y9	Z9	X10	Y10	Z10	X11	Y11	Z11	X12	Y12	Z12	X13	Y13	Z13	X14	Y14	Z14	X15	Y15	Z15	X16	Y16	Z16	X17	Y17	Z17	X18	Y18	Z18	X19	Y19	Z19	
246	2.45000	49.432789	937.945370	66.892075	19.095035	1484.329827	180.374284	21.186733	1567.747631	328.098647	123.541395	940.150469	64.352927	-24.675760	935.740218	69.431378	141.852219	536.102048	201.110718	-73.235290	523.144026	157.500529	131.259414	167.650142	72.802069	-109.685916	232.904726	-94.167145	125.885910	127.843939	34.198720	-110.003699	216.331163	-144.371498	136.125959	93.189957	233.312143	-120.053492	94.456197	2.864762	184.904921	1464.423423	124.146949	-147.450949	1425.232862	135.282095	301.733489	1234.981995	44.834277	-258.907667	1170.845533	126.275052	382.212789	1206.251384	235.387630	-269.183248	1260.761796	346.374030
247	2.46000	47.518372	937.529326	68.497272	16.997255	1484.023155	181.969305	18.962242	1567.550224	329.502996	121.681847	939.752747	65.818956	-26.645011	935.305858	71.175714	140.153420	534.653903	199.008100	-73.750738	523.613441	164.275119	128.524095	167.907499	66.613910	-110.463444	231.719758	-83.547184	122.970176	128.678568	27.624526	-111.002748	214.651749	-133.388819	133.648977	91.416754	225.487171	-119.856039	94.801258	14.647885	183.565614	1463.997335	127.199568	-149.880151	1424.634065	137.246282	299.406494	1232.739395	52.642656	-258.341625	1169.046649	129.312213	372.295314	1203.947692	244.449605	-263.479683	1255.877159	349.076168
248	2.47000	45.603955	937.113282	70.102470	14.899476	1483.716484	183.564326	16.737750	1567.352818	330.907346	119.822299	939.355025	67.284984	-28.614261	934.871498	72.920050	138.454620	533.205757	196.905483	-74.266186	524.082855	171.049709	125.788776	168.164857	60.425750	-111.240971	230.534790	-72.927223	120.054441	129.513197	21.050332	-112.001797	212.972335	-122.406140	131.171995	89.643550	217.662199	-119.658586	95.146318	26.431009	182.226307	1463.571247	130.252187	-152.309354	1424.035267	139.210469	297.079498	1230.496796	60.451036	-257.775584	1167.247766	132.349373	362.377839	1201.644001	253.511580	-257.776118	1250.992521	351.778306
249	2.48000	43.689538	936.697238	71.707667	12.801696	1483.409813	185.159348	14.513259	1567.155411	332.311695	117.962751	938.957303	68.751013	-30.583512	934.437138	74.664387	136.755820	531.757612	194.802865	-74.781633	524.552270	177.824299	123.053457	168.422215	54.237591	-112.018499	229.349822	-62.307263	117.138707	130.347826	14.476137	-113.000846	211.292920	-111.423461	128.695012	87.870346	209.837227	-119.461133	95.491378	38.214133	180.887000	1463.145159	133.304805	-154.738556	1423.436470	141.174657	294.752503	1228.254196	68.259416	-257.209542	1165.448882	135.386534	352.460363	1199.340309	262.573554	-252.072554	1246.107884	354.480444
250	2.49000	41.775121	936.281194	73.312865	10.703916	1483.103142	186.754369	12.288767	1566.958004	333.716044	116.103204	938.559580	70.217041	-32.552762	934.002778	76.408723	135.057020	530.309466	192.700248	-75.297081	525.021684	184.598889	120.318138	168.679572	48.049431	-112.796027	228.164853	-51.687302	114.222973	131.182455	7.901943	-113.999895	209.613506	-100.440782	126.218030	86.097142	202.012255	-119.263680	95.836438	49.997256	179.547693	1462.719071	136.357424	-157.167759	1422.837673	143.138844	292.425508	1226.011596	76.067796	-256.643500	1163.649999	138.423695	342.542888	1197.036617	271.635529	-246.368989	1241.223247	357.182582
251	2.50000	39.860704	935.865150	74.918062	8.606136	1482.796471	188.349390	10.064276	1566.760598	335.120394	114.243656	938.161858	71.683070	-34.522013	933.568418	78.153059	133.358221	528.861321	190.597630	-75.812529	525.491099	191.373480	117.582819	168.936930	41.861272	-113.573555	226.979885	-41.067341	111.307239	132.017084	1.327749	-114.998944	207.934092	-89.458103	123.741048	84.323938	194.187284	-119.066227	96.181498	61.780380	178.208387	1462.292983	139.410043	-159.596961	1422.238875	145.103031	290.098513	1223.768997	83.876176	-256.077459	1161.851115	141.460855	332.625413	1194.732926	280.697504	-240.665424	1236.338610	359.884720
252	2.51000	37.946287	935.449106	76.523260	6.508357	1482.489800	189.944411	7.839784	1566.563191	336.524743	112.384108	937.764136	73.149098	-36.491264	933.134058	79.897395	131.659421	527.413176	188.495012	-76.327976	525.960513	198.148070	114.847501	169.194288	35.673113	-114.351083	225.794917	-30.447381	108.391504	132.851712	-5.246445	-115.997993	206.254677	-78.475424	121.264066	82.550734	186.362312	-118.868775	96.526559	73.563504	176.869080	1461.866895	142.462661	-162.026163	1421.640078	147.067219	287.771517	1221.526397	91.684556	-255.511417	1160.052232	144.498016	322.707938	1192.429234	289.759479	-234.961859	1231.453973	362.586858
253	2.52000	36.031870	935.033062	78.128457	4.410577	1482.183129	191.539432	5.615293	1566.365785	337.929092	110.524560	937.366413	74.615126	-38.460514	932.699698	81.641731	129.960621	525.965030	186.392395	-76.843424	526.429928	204.922660	112.112182	169.451645	29.484953	-115.128611	224.609949	-19.827420	105.475770	133.686341	-11.820640	-116.997042	204.575263	-67.492744	118.787083	80.777530	178.537340	-118.671322	96.871619	85.346628	175.529773	1461.440807	145.515280	-164.455366	1421.041280	149.031406	285.444522	1219.283797	99.492936	-254.945375	1158.253348	147.535176	312.790463	1190.125543	298.821454	-229.258295	1226.569336	365.288995
254	2.53000	34.117453	934.617018	79.733654	2.312797	1481.876458	193.134453	3.390801	1566.168378	339.333442	108.665012	936.968691	76.081155	-40.429765	932.265338	83.386068	128.261821	524.516885	184.289777	-77.358872	526.899342	211.697250	109.376863	169.709003	23.296794	-115.906139	223.424981	-9.207459	102.560036	134.520970	-18.394834	-117.996092	202.895849	-56.510065	116.310101	79.004327	170.712368	-118.473869	97.216679	97.129751	174.190466	1461.014719	148.567899	-166.884568	1420.442483	150.995593	283.117527	1217.041197	107.301316	-254.379334	1156.454465	150.572337	302.872988	1187.821851	307.883428	-223.554730	1221.684698	367.991133
255	2.54000	32.203036	934.200974	81.338852	0.215017	1481.569787	194.729474	1.166310	1565.970971	340.737791	106.805464	936.570969	77.547183	-42.399015	931.830978	85.130404	126.563022	523.068739	182.187160	-77.874319	527.368757	218.471840	106.641544	169.966361	17.108635	-116.683667	222.240013	1.412502	99.644302	135.355599	-24.969028	-118.995141	201.216435	-45.527386	113.833119	77.231123	162.887396	-118.276416	97.561739	108.912875	172.851160	1460.588631	151.620518	-169.313770	1419.843686	152.959781	280.790531	1214.798598	115.109695	-253.813292	1154.655581	153.609497	292.955513	1185.518159	316.945403	-217.851165	1216.800061	370.693271
256	2.55000	30.288619	933.784930	82.944049	-1.882763	1481.263115	196.324495	-1.058182	1565.773565	342.142140	104.945916	936.173246	79.013212	-44.368266	931.396617	86.874740	124.864222	521.620594	180.084542	-78.389767	527.838171	225.246431	103.906225	170.223718	10.920475	-117.461195	221.055045	12.032462	96.728567	136.190228	-31.543222	-119.994190	199.537020	-34.544707	111.356137	75.457919	155.062424	-118.078963	97.906800	120.695999	171.511853	1460.162543	154.673136	-171.742973	1419.244888	154.923968	278.463536	1212.555998	122.918075	-253.247250	1152.856697	156.646658	283.038038	1183.214468	326.007378	-212.147600	1211.915424	373.395409
257	2.56000	28.563077	933.645195	84.386465	-3.680479	1481.070109	197.822886	-2.894720	1565.621042	343.468780	103.244890	936.037986	80.354342	-46.118366	931.252409	88.418456	123.439083	520.922183	179.317538	-79.296770	528.220144	229.686631	102.000339	171.182914	6.845753	-118.567524	219.887000	19.574018	94.720782	137.675563	-35.920735	-121.269028	197.909436	-26.723025	109.661078	74.660090	149.467850	-118.520716	98.063012	129.391566	170.076721	1459.910831	156.984695	-173.723523	1418.860534	156.781884	276.128695	1211.247852	127.789488	-253.153487	1151.700644	158.816752	275.744778	1180.953397	331.199537	-208.328180	1207.349851	375.202233
258	2.57000	26.837534	933.505461	85.828881	-5.478196	1480.877102	199.321276	-4.731259	1565.468519	344.795419	101.543864	935.902726	81.695472	-47.868466	931.108200	89.962173	122.013943	520.223772	178.550533	-80.203772	528.602116	234.126831	100.094453	172.142110	2.771030	-119.673853	218.718956	27.115573	92.712996	139.160897	-40.298247	-122.543866	196.281851	-18.901343	107.966020	73.862260	143.873277	-118.962469	98.219224	138.087134	168.641589	1459.659120	159.296254	-175.704074	1418.476180	158.639800	273.793853	1209.939707	132.660901	-253.059723	1150.544590	160.986845	268.451519	1178.692327	336.391695	-204.508759	1202.784278	377.009057
259	2.58000	25.111991	933.365727	87.271297	-7.275913	1480.684096	200.819666	-6.567798	1565.315995	346.122058	99.842838	935.767466	83.036602	-49.618566	930.963991	91.505889	120.588804	519.525360	177.783529	-81.110775	528.984089	238.567032	98.188567	173.101306	-1.303692	-120.780182	217.550912	34.657129	90.705210	140.646232	-44.675759	-123.818704	194.654267	-11.079661	106.270962	73.064431	138.278703	-119.404222	98.375436	146.782701	167.206457	1459.407408	161.607814	-177.684625	1418.091826	160.497716	271.459012	1208.631561	137.532314	-252.965960	1149.388537	163.156939	261.158260	1176.431256	341.583853	-200.689338	1198.218704	378.815880
260	2.59000	23.386448	933.225993	88.713713	-9.073630	1480.491089	202.318057	-8.404337	1565.163472	347.448698	98.141811	935.632206	84.377732	-51.368667	930.819782	93.049605	119.163665	518.826949	177.016525	-82.017777	529.366062	243.007232	96.282680	174.060502	-5.378414	-121.886511	216.382867	42.198684	88.697425	142.131566	-49.053271	-125.093543	193.026682	-3.257979	104.575904	72.266602	132.684129	-119.845975	98.531649	155.478269	165.771325	1459.155697	163.919373	-179.665176	1417.707472	162.355631	269.124171	1207.323416	142.403727	-252.872196	1148.232483	165.327032	253.865001	1174.170186	346.776012	-196.869917	1193.653131	380.622704
261	2.60000	21.660905	933.086259	90.156129	-10.871346	1480.298083	203.816447	-10.240876	1565.010949	348.775337	96.440785	935.496946	85.718862	-53.118767	930.675573	94.593321	117.738526	518.128538	176.249520	-82.924780	529.748034	247.447433	94.376794	175.019697	-9.453137	-122.992840	215.214823	49.740240	86.689639	143.616901	-53.430783	-126.368381	191.399098	4.563703	102.880845	71.468773	127.089555	-120.287728	98.687861	164.173836	164.336193	1458.903985	166.230932	-181.645727	1417.323118	164.213547	266.789329	1206.015270	147.275139	-252.778433	1147.076429	167.497126	246.571741	1171.909115	351.968170	-193.050496	1189.087558	382.429528
262	2.61000	19.935362	932.946524	91.598545	-12.669063	1480.105076	205.314837	-12.077415	1564.858426	350.101976	94.739759	935.361686	87.059992	-54.868867	930.531365	96.137038	116.313386	517.430127	175.482516	-83.831783	530.130007	251.887633	92.470908	175.978893	-13.527859	-124.099169	214.046779	57.281795	84.681853	145.102236	-57.808295	-127.643219	189.771513	12.385385	101.185787	70.670944	121.494981	-120.729481	98.844073	172.869404	162.901062	1458.652274	168.542491	-183.626278	1416.938764	166.071463	264.454488	1204.707125	152.146552	-252.684669	1145.920376	169.667219	239.278482	1169.648045	357.160329	-189.231075	1184.521985	384.236351
263	2.62000	18.209819	932.806790	93.040961	-14.466780	1479.912069	206.813228	-13.913954	1564.705903	351.428616	93.038733	935.226426	88.401123	-56.618967	930.387156	97.680754	114.888247	516.731716	174.715511	-84.738785	530.511980	256.327833	90.565022	176.938089	-17.602582	-125.205498	212.878734	64.823351	82.674067	146.587570	-62.185807	-128.918057	188.143929	20.207067	99.490729	69.873114	115.900407	-121.171233	99.000285	181.564971	161.465930	1458.400562	170.854050	-185.606828	1416.554410	167.929379	262.119646	1203.398979	157.017965	-252.590906	1144.764322	171.837313	231.985223	1167.386974	362.352487	-185.411655	1179.956411	386.043175
